<svg xmlns="http://www.w3.org/2000/svg" viewBox="0 0 600 480">
  <rect width="600" height="480" fill="#dfd5c5"/><circle cx="300" cy="240" r="190" fill="#fffaf0"/><circle cx="300" cy="240" r="151" fill="#b94e39"/>
  <g fill="#f4e7b8" stroke="#b78d5d" stroke-width="5"><rect x="169" y="158" width="104" height="87" rx="10" transform="rotate(-8 169 158)"/><rect x="302" y="139" width="111" height="91" rx="10" transform="rotate(11 302 139)"/><rect x="245" y="263" width="115" height="90" rx="10" transform="rotate(-7 245 263)"/><rect x="368" y="264" width="74" height="72" rx="9" transform="rotate(14 368 264)"/><rect x="157" y="280" width="73" height="68" rx="8" transform="rotate(-12 157 280)"/></g>
  <g fill="#4b743e"><circle cx="290" cy="125" r="8"/><circle cx="421" cy="239" r="8"/><circle cx="228" cy="255" r="8"/><circle cx="356" cy="365" r="8"/></g>
</svg>
